<?xml version="1.0" encoding="UTF-8"?>
<!DOCTYPE svg PUBLIC "-//W3C//DTD SVG 1.1//EN" "http://www.w3.org/Graphics/SVG/1.1/DTD/svg11.dtd">
<!-- Creator: CorelDRAW 2020 (64 Bit) -->
<svg xmlns="http://www.w3.org/2000/svg" xml:space="preserve" width="297mm" height="210mm" version="1.1" style="shape-rendering:geometricPrecision; text-rendering:geometricPrecision; image-rendering:optimizeQuality; fill-rule:evenodd; clip-rule:evenodd"
viewBox="0 0 29700 21000"
 xmlns:xlink="http://www.w3.org/1999/xlink"
 xmlns:xodm="http://www.corel.com/coreldraw/odm/2003">
 <defs>
  <style type="text/css">
   <![CDATA[
    .fil0 {fill:black}
   ]]>
  </style>
 </defs>
 <g id="Camada_x0020_1">
  <metadata id="CorelCorpID_0Corel-Layer"/>
  <g id="_2528488794592">
   <polygon class="fil0" points="14854.45,10507.57 22116.76,11134.01 23397.44,11254.98 22115.22,11151.72 "/>
   <polygon class="fil0" points="14854.39,10508 22035.23,11765.15 23300.62,11997.3 22032.14,11782.66 "/>
   <polygon class="fil0" points="14854.3,10508.42 21899.33,12386.93 23139.86,12728.53 21894.73,12404.1 "/>
   <polygon class="fil0" points="14854.17,10508.84 21708.8,12994.26 22914.86,13442.69 21702.72,13010.97 "/>
   <polygon class="fil0" points="14854,10509.24 21465.35,13582.35 22627.64,14134.14 21457.83,13598.47 "/>
   <polygon class="fil0" points="14853.8,10509.63 21171.6,14146.95 22281.28,14797.89 21162.71,14162.35 "/>
   <polygon class="fil0" points="14853.57,10510 20829.93,14683.84 21878.58,15428.96 20819.73,14698.4 "/>
   <polygon class="fil0" points="14853.3,10510.34 20443.03,15189.08 21422.73,16022.75 20431.6,15202.7 "/>
   <polygon class="fil0" points="14853.01,10510.67 20013.89,15658.98 20917.24,16574.9 20001.32,15671.55 "/>
   <polygon class="fil0" points="14852.68,10510.96 19545.04,16089.26 20365.09,17080.39 19531.42,16100.69 "/>
   <polygon class="fil0" points="14852.34,10511.23 19040.74,16477.39 19771.3,17536.24 19026.18,16487.59 "/>
   <polygon class="fil0" points="14851.97,10511.46 18504.69,16820.37 19140.23,17938.94 18489.29,16829.26 "/>
   <polygon class="fil0" points="14851.58,10511.66 17940.81,17115.49 18476.48,18285.3 17924.69,17123.01 "/>
   <polygon class="fil0" points="14851.18,10511.83 17353.31,17360.38 17785.03,18572.52 17336.6,17366.46 "/>
   <polygon class="fil0" points="14850.76,10511.96 16746.44,17552.39 17070.87,18797.52 16729.27,17556.99 "/>
   <polygon class="fil0" points="14850.34,10512.05 16125,17689.8 16339.64,18958.28 16107.49,17692.89 "/>
   <polygon class="fil0" points="14849.91,10512.11 15494.06,17772.88 15597.32,19055.1 15476.35,17774.42 "/>
   <polygon class="fil0" points="14849.47,10512.13 14858.36,17801.83 14849.47,19088.25 14840.58,17801.83 "/>
   <polygon class="fil0" points="14849.03,10512.11 14222.59,17774.42 14101.62,19055.1 14204.88,17772.88 "/>
   <polygon class="fil0" points="14848.6,10512.05 13591.45,17692.89 13359.3,18958.28 13573.94,17689.8 "/>
   <polygon class="fil0" points="14848.18,10511.96 12969.67,17556.99 12628.07,18797.52 12952.5,17552.39 "/>
   <polygon class="fil0" points="14847.76,10511.83 12362.34,17366.46 11913.91,18572.52 12345.63,17360.38 "/>
   <polygon class="fil0" points="14847.36,10511.66 11774.25,17123.01 11222.46,18285.3 11758.13,17115.49 "/>
   <polygon class="fil0" points="14846.97,10511.46 11209.65,16829.26 10558.71,17938.94 11194.25,16820.37 "/>
   <polygon class="fil0" points="14846.6,10511.23 10672.76,16487.59 9927.64,17536.24 10658.2,16477.39 "/>
   <polygon class="fil0" points="14846.26,10510.96 10167.52,16100.69 9333.85,17080.39 10153.9,16089.26 "/>
   <polygon class="fil0" points="14845.93,10510.67 9697.62,15671.55 8781.7,16574.9 9685.05,15658.98 "/>
   <polygon class="fil0" points="14845.64,10510.34 9267.34,15202.7 8276.21,16022.75 9255.91,15189.08 "/>
   <polygon class="fil0" points="14845.37,10510 8879.21,14698.4 7820.36,15428.96 8869.01,14683.84 "/>
   <polygon class="fil0" points="14845.14,10509.63 8536.23,14162.35 7417.66,14797.89 8527.34,14146.95 "/>
   <polygon class="fil0" points="14844.94,10509.24 8241.11,13598.47 7071.3,14134.14 8233.59,13582.35 "/>
   <polygon class="fil0" points="14844.77,10508.84 7996.22,13010.97 6784.08,13442.69 7990.14,12994.26 "/>
   <polygon class="fil0" points="14844.64,10508.42 7804.21,12404.1 6559.08,12728.53 7799.61,12386.93 "/>
   <polygon class="fil0" points="14844.55,10508 7666.8,11782.66 6398.32,11997.3 7663.71,11765.15 "/>
   <polygon class="fil0" points="14844.49,10507.57 7583.72,11151.72 6301.5,11254.98 7582.18,11134.01 "/>
   <polygon class="fil0" points="14844.47,10507.13 7554.77,10516.02 6268.35,10507.13 7554.77,10498.24 "/>
   <polygon class="fil0" points="14844.49,10506.69 7582.18,9880.25 6301.5,9759.28 7583.72,9862.54 "/>
   <polygon class="fil0" points="14844.55,10506.26 7663.71,9249.11 6398.32,9016.96 7666.8,9231.6 "/>
   <polygon class="fil0" points="14844.64,10505.84 7799.61,8627.33 6559.08,8285.73 7804.21,8610.16 "/>
   <polygon class="fil0" points="14844.77,10505.42 7990.14,8020 6784.08,7571.57 7996.22,8003.29 "/>
   <polygon class="fil0" points="14844.94,10505.02 8233.59,7431.91 7071.3,6880.12 8241.11,7415.79 "/>
   <polygon class="fil0" points="14845.14,10504.63 8527.34,6867.31 7417.66,6216.37 8536.23,6851.91 "/>
   <polygon class="fil0" points="14845.37,10504.26 8869.01,6330.42 7820.36,5585.3 8879.21,6315.86 "/>
   <polygon class="fil0" points="14845.64,10503.92 9255.91,5825.18 8276.21,4991.51 9267.34,5811.56 "/>
   <polygon class="fil0" points="14845.93,10503.59 9685.05,5355.28 8781.7,4439.36 9697.62,5342.71 "/>
   <polygon class="fil0" points="14846.26,10503.3 10153.9,4925 9333.85,3933.87 10167.52,4913.57 "/>
   <polygon class="fil0" points="14846.6,10503.03 10658.2,4536.87 9927.64,3478.02 10672.76,4526.67 "/>
   <polygon class="fil0" points="14846.97,10502.8 11194.25,4193.89 10558.71,3075.32 11209.65,4185 "/>
   <polygon class="fil0" points="14847.36,10502.6 11758.13,3898.77 11222.46,2728.96 11774.25,3891.25 "/>
   <polygon class="fil0" points="14847.76,10502.43 12345.63,3653.88 11913.91,2441.74 12362.34,3647.8 "/>
   <polygon class="fil0" points="14848.18,10502.3 12952.5,3461.87 12628.07,2216.74 12969.67,3457.27 "/>
   <polygon class="fil0" points="14848.6,10502.21 13573.94,3324.46 13359.3,2055.98 13591.45,3321.37 "/>
   <polygon class="fil0" points="14849.03,10502.15 14204.88,3241.38 14101.62,1959.16 14222.59,3239.84 "/>
   <polygon class="fil0" points="14849.47,10502.13 14840.58,3212.43 14849.47,1926.01 14858.36,3212.43 "/>
   <polygon class="fil0" points="14849.91,10502.15 15476.35,3239.84 15597.32,1959.16 15494.06,3241.38 "/>
   <polygon class="fil0" points="14850.34,10502.21 16107.49,3321.37 16339.64,2055.98 16125,3324.46 "/>
   <polygon class="fil0" points="14850.76,10502.3 16729.27,3457.27 17070.87,2216.74 16746.44,3461.87 "/>
   <polygon class="fil0" points="14851.18,10502.43 17336.6,3647.8 17785.03,2441.74 17353.31,3653.88 "/>
   <polygon class="fil0" points="14851.58,10502.6 17924.69,3891.25 18476.48,2728.96 17940.81,3898.77 "/>
   <polygon class="fil0" points="14851.97,10502.8 18489.29,4185 19140.23,3075.32 18504.69,4193.89 "/>
   <polygon class="fil0" points="14852.34,10503.03 19026.18,4526.67 19771.3,3478.02 19040.74,4536.87 "/>
   <polygon class="fil0" points="14852.68,10503.3 19531.42,4913.57 20365.09,3933.87 19545.04,4925 "/>
   <polygon class="fil0" points="14853.01,10503.59 20001.32,5342.71 20917.24,4439.36 20013.89,5355.28 "/>
   <polygon class="fil0" points="14853.3,10503.92 20431.6,5811.56 21422.73,4991.51 20443.03,5825.18 "/>
   <polygon class="fil0" points="14853.57,10504.26 20819.73,6315.86 21878.58,5585.3 20829.93,6330.42 "/>
   <polygon class="fil0" points="14853.8,10504.63 21162.71,6851.91 22281.28,6216.37 21171.6,6867.31 "/>
   <polygon class="fil0" points="14854,10505.02 21457.83,7415.79 22627.64,6880.12 21465.35,7431.91 "/>
   <polygon class="fil0" points="14854.17,10505.42 21702.72,8003.29 22914.86,7571.57 21708.8,8020 "/>
   <polygon class="fil0" points="14854.3,10505.84 21894.73,8610.16 23139.86,8285.73 21899.33,8627.33 "/>
   <polygon class="fil0" points="14854.39,10506.26 22032.14,9231.6 23300.62,9016.96 22035.23,9249.11 "/>
   <polygon class="fil0" points="14854.45,10506.69 22115.22,9862.54 23397.44,9759.28 22116.76,9880.25 "/>
   <polygon class="fil0" points="14854.47,10507.13 22144.17,10498.24 23430.59,10507.13 22144.17,10516.02 "/>
  </g>
 </g>
</svg>
